# Blender 3.5.1
# www.blender.org
mtllib trash can.mtl
o Cube
v -1.000000 0.000000 1.000000
v -0.830784 4.000000 0.830784
v -1.000000 0.000000 -1.000000
v -0.830784 4.000000 -0.830784
v 1.000000 0.000000 1.000000
v 0.830784 4.000000 0.830784
v 1.000000 0.000000 -1.000000
v 0.830784 4.000000 -0.830784
v -1.000000 4.000000 1.000000
v -1.000000 4.000000 -1.000000
v 1.000000 4.000000 -1.000000
v 1.000000 4.000000 1.000000
v -0.830784 1.474030 0.830784
v -0.830784 1.474030 -0.830784
v 0.830784 1.474030 -0.830784
v 0.830784 1.474030 0.830784
vn -1.0000 -0.0000 -0.0000
vn -0.0000 -0.0000 -1.0000
vn 1.0000 -0.0000 -0.0000
vn -0.0000 -0.0000 1.0000
vn -0.0000 -1.0000 -0.0000
vn -0.0000 1.0000 -0.0000
vt 0.375000 0.000000
vt 0.375000 1.000000
vt 0.125000 0.750000
vt 0.853848 0.728848
vt 0.375000 0.250000
vt 0.125000 0.500000
vt 0.853848 0.521152
vt 0.375000 0.750000
vt 0.646152 0.728848
vt 0.375000 0.500000
vt 0.646152 0.521152
vt 0.625000 0.000000
vt 0.625000 1.000000
vt 0.875000 0.750000
vt 0.625000 0.250000
vt 0.875000 0.500000
vt 0.625000 0.500000
vt 0.625000 0.750000
vt 0.853848 0.728848
vt 0.853848 0.521152
vt 0.646152 0.521152
vt 0.646152 0.728848
s 0
f 1/1/1 9/12/1 10/15/1 3/5/1
f 3/5/2 10/15/2 11/17/2 7/10/2
f 7/10/3 11/17/3 12/18/3 5/8/3
f 5/8/4 12/18/4 9/13/4 1/2/4
f 3/6/5 7/10/5 5/8/5 1/3/5
f 2/4/2 6/9/2 16/22/2 13/19/2
f 2/4/6 4/7/6 10/16/6 9/14/6
f 4/7/6 8/11/6 11/17/6 10/16/6
f 8/11/6 6/9/6 12/18/6 11/17/6
f 6/9/6 2/4/6 9/14/6 12/18/6
f 15/21/6 14/20/6 13/19/6 16/22/6
f 8/11/4 4/7/4 14/20/4 15/21/4
f 6/9/1 8/11/1 15/21/1 16/22/1
f 4/7/3 2/4/3 13/19/3 14/20/3
