# Blender v3.0.1 OBJ File: ''
# www.blender.org
mtllib test.mtl
o Cube
v 0.809318 0.865695 -0.402724
v 1.000000 -1.000000 -1.000000
v 0.809318 0.865695 1.597276
v 1.000000 -1.000000 1.000000
v -1.190682 0.865695 -0.402724
v -1.000000 -1.000000 -1.000000
v -1.190682 0.865695 1.597276
v -1.000000 -1.000000 1.000000
v 0.724283 1.955929 1.671334
v -1.263788 2.079714 1.491753
v 0.882424 1.639921 -0.297201
v -1.105648 1.763706 -0.476782
v 0.759599 2.419332 1.599782
v -1.228472 2.543117 1.420200
v 0.917740 2.103323 -0.368754
v -1.070331 2.227108 -0.548335
v 0.759599 2.419332 1.599782
v -1.228472 2.543117 1.420200
v 0.917740 2.103323 -0.368754
v -1.070331 2.227108 -0.548335
v 0.566356 2.399032 1.372937
v -1.001828 2.496674 1.231283
v 0.691096 2.149766 -0.179837
v -0.877087 2.247407 -0.321490
v 0.631015 3.247457 1.241934
v -0.937168 3.345098 1.100281
v 0.755756 2.998191 -0.310840
v -0.812428 3.095832 -0.452493
vt 0.625000 0.250000
vt 0.625000 0.000000
vt 0.625000 0.000000
vt 0.625000 0.250000
vt 0.375000 0.750000
vt 0.625000 0.750000
vt 0.625000 1.000000
vt 0.375000 1.000000
vt 0.375000 0.000000
vt 0.375000 0.250000
vt 0.125000 0.500000
vt 0.375000 0.500000
vt 0.125000 0.750000
vt 0.625000 0.500000
vt 0.625000 0.500000
vt 0.625000 0.250000
vt 0.625000 0.500000
vt 0.625000 0.750000
vt 0.625000 1.000000
vt 0.625000 0.750000
vt 0.625000 0.000000
vt 0.625000 1.000000
vt 0.625000 0.261260
vt 0.625000 0.094342
vt 0.625000 0.094342
vt 0.625000 0.261260
vt 0.625000 0.655658
vt 0.625000 0.000000
vt 0.625000 0.750000
vt 0.625000 0.488740
vt 0.625000 0.500000
vt 0.625000 0.250000
vt 0.625000 0.488740
vt 0.625000 0.655658
vn -0.9992 0.0022 -0.0400
vn 0.0000 -0.3049 0.9524
vn -0.9948 -0.1017 0.0000
vn 0.0000 -1.0000 0.0000
vn 0.9948 0.1017 0.0000
vn 0.0000 0.3049 -0.9524
vn 0.0791 -0.1580 -0.9843
vn 0.9992 0.0026 0.0396
vn 0.0454 0.0145 -0.9989
vn -0.0447 0.0106 0.9989
vn 0.9940 -0.0619 0.0898
vn -0.9940 0.0619 -0.0898
vn -0.0791 0.1580 0.9843
vn 0.0751 0.9855 -0.1522
usemtl Material
s off
f 5/1/1 7/2/1 10/3/1 12/4/1
f 4/5/2 3/6/2 7/7/2 8/8/2
f 8/9/3 7/2/3 5/1/3 6/10/3
f 6/11/4 2/12/4 4/5/4 8/13/4
f 2/12/5 1/14/5 3/6/5 4/5/5
f 6/10/6 5/1/6 1/14/6 2/12/6
f 11/15/7 12/4/7 16/16/7 15/17/7
f 3/6/8 1/14/8 11/15/8 9/18/8
f 1/14/9 5/1/9 12/4/9 11/15/9
f 7/7/10 3/6/10 9/18/10 10/19/10
f 9/18/11 11/15/11 15/17/11 13/20/11
f 12/4/12 10/3/12 14/21/12 16/16/12
f 10/19/13 9/18/13 13/20/13 14/22/13
f 24/23/12 22/24/12 26/25/12 28/26/12
f 21/27/14 22/24/14 18/28/14 17/29/14
f 23/30/14 21/27/14 17/29/14 19/31/14
f 22/24/14 24/23/14 20/32/14 18/28/14
f 24/23/14 23/30/14 19/31/14 20/32/14
f 27/33/14 28/26/14 26/25/14 25/34/14
f 22/24/13 21/27/13 25/34/13 26/25/13
f 23/30/7 24/23/7 28/26/7 27/33/7
f 21/27/11 23/30/11 27/33/11 25/34/11
