# Blender 3.6.2
# www.blender.org
mtllib arrow.mtl
o Cylinder
v 0.005035 4.000000 -0.202366
v 0.108242 0.000000 -0.171059
v 0.097779 4.000000 -0.175460
v 0.171059 4.000000 -0.108242
v 0.175460 0.000000 -0.097779
v 0.202366 0.000000 -0.005035
v 0.202366 4.000000 0.005035
v 0.175460 4.000000 0.097779
v 0.108242 4.000000 0.171059
v 0.151003 0.000000 0.142240
v 0.005035 0.000000 0.202366
v -0.005035 4.000000 0.202366
v -0.108242 0.000000 0.171059
v -0.097779 4.000000 0.175460
v -0.171059 4.000000 0.108242
v -0.175460 0.000000 0.097779
v -0.202366 0.000000 0.005035
v -0.202366 4.000000 -0.005035
v -0.175460 4.000000 -0.097779
v -0.108242 4.000000 -0.171059
v -0.151003 0.000000 -0.142240
v -0.005035 0.000000 -0.202366
v 0.192748 3.997283 -0.465334
v 0.418790 3.997283 -0.279826
v 0.499221 3.999238 -0.049169
v 0.465334 3.997283 0.192748
v 0.279826 3.997283 0.418790
v 0.049169 3.999238 0.499221
v -0.192748 3.997283 0.465334
v -0.418790 3.997283 0.279826
v -0.499221 3.999238 0.049169
v -0.465334 3.997283 -0.192748
v -0.279826 3.997283 -0.418790
v -0.049169 3.999238 -0.499221
v 0.000000 6.000000 0.000000
vn 0.7369 -0.0010 -0.6760
vn -0.7369 -0.0010 0.6760
vn 0.9604 0.0007 -0.2786
vn 0.6760 0.0010 -0.7369
vn 0.9442 -0.0021 0.3293
vn 0.2664 0.0007 0.9639
vn 0.7369 0.0030 0.6760
vn -0.2664 -0.0004 0.9639
vn -0.9604 0.0007 0.2786
vn -0.6760 0.0010 0.7369
vn -0.9442 -0.0021 -0.3293
vn -0.7369 0.0030 -0.6760
vn -0.2664 0.0007 -0.9639
vn -0.0000 -1.0000 -0.0000
vn 0.2664 -0.0004 -0.9639
vn 0.1367 0.2367 -0.9619
vn 0.6168 0.2340 -0.7516
vn 0.9168 0.2367 -0.3217
vn 0.9619 0.2367 0.1367
vn 0.7516 0.2340 0.6168
vn 0.3217 0.2367 0.9168
vn -0.1367 0.2367 0.9619
vn -0.6168 0.2340 0.7516
vn -0.9168 0.2367 0.3217
vn -0.9619 0.2367 -0.1367
vn -0.7516 0.2340 -0.6168
vn -0.3217 0.2367 -0.9168
vn 0.0026 -1.0000 -0.0003
vn 0.9639 0.0004 -0.2664
vn 0.9604 -0.0007 0.2786
vn 0.3809 -0.0026 0.9246
vn -0.2786 -0.0007 0.9604
vn -0.9639 0.0004 0.2664
vn -0.9604 -0.0007 -0.2786
vn -0.3809 -0.0026 -0.9246
vn 0.2786 -0.0007 -0.9604
vn -0.0033 -0.9994 -0.0338
vn -0.0097 -0.9999 0.0119
vn -0.0119 -0.9999 -0.0097
vn 0.0033 -0.9994 0.0338
vn 0.0097 -0.9999 -0.0119
vn 0.0119 -0.9999 0.0097
vn 0.0004 -1.0000 0.0044
vn -0.0004 -1.0000 -0.0044
vn -0.0074 -1.0000 0.0007
vt 0.839652 1.000000
vt 0.830933 0.500000
vt 0.910348 0.500000
vt 0.339652 1.000000
vt 0.330933 0.500000
vt 0.410348 0.500000
vt 0.746097 1.000000
vt 0.753903 0.500000
vt 0.919067 1.000000
vt 0.669067 1.000000
vt 0.630190 0.500000
vt 0.503903 0.500000
vt 0.589652 1.000000
vt 0.496097 1.000000
vt 0.419067 1.000000
vt 0.246097 1.000000
vt 0.253903 0.500000
vt 0.169067 1.000000
vt 0.130190 0.500000
vt 0.089652 1.000000
vt 0.011857 0.500000
vt 0.012817 1.000000
vt 0.512923 0.244152
vt 0.958649 0.366318
vt 0.918376 0.092355
vt 0.987183 0.500000
vt 0.226589 0.487694
vt 0.250000 0.250000
vt 0.340750 0.468860
vt 0.447048 0.381558
vt 0.487694 0.273411
vt 0.468860 0.159250
vt 0.381558 0.052952
vt 0.273411 0.012306
vt 0.159250 0.031140
vt 0.052952 0.118442
vt 0.012306 0.226589
vt 0.031140 0.340750
vt 0.118442 0.447048
vt 0.755848 0.012924
vt 0.623582 0.049752
vt 0.541351 0.133682
vt 0.581624 0.407645
vt 0.744152 0.487077
vt 0.876418 0.450248
vt 0.987076 0.255848
vt 0.988143 1.000000
s 0
f 4/1/1 5/2/1 2/3/1
f 15/4/2 16/5/2 13/6/2
f 5/2/3 7/7/3 6/8/3
f 3/9/4 4/1/4 2/3/4
f 6/8/5 8/10/5 10/11/5
f 11/12/6 9/13/6 12/14/6
f 8/10/7 9/13/7 10/11/7
f 11/12/8 14/15/8 13/6/8
f 16/5/9 18/16/9 17/17/9
f 14/15/10 15/4/10 13/6/10
f 17/17/11 19/18/11 21/19/11
f 19/18/12 20/20/12 21/19/12
f 22/21/13 20/20/13 1/22/13
f 17/23/14 5/24/14 10/25/14
f 22/26/15 3/9/15 2/3/15
f 34/27/16 35/28/16 23/29/16
f 23/29/17 35/28/17 24/30/17
f 24/30/18 35/28/18 25/31/18
f 25/31/19 35/28/19 26/32/19
f 26/32/20 35/28/20 27/33/20
f 27/33/21 35/28/21 28/34/21
f 28/34/22 35/28/22 29/35/22
f 29/35/23 35/28/23 30/36/23
f 30/36/24 35/28/24 31/37/24
f 31/37/25 35/28/25 32/38/25
f 32/38/26 35/28/26 33/39/26
f 33/39/27 35/28/27 34/27/27
f 25/31/28 29/35/28 33/39/28
f 5/2/29 4/1/29 7/7/29
f 6/8/30 7/7/30 8/10/30
f 11/12/31 10/11/31 9/13/31
f 11/12/32 12/14/32 14/15/32
f 16/5/33 15/4/33 18/16/33
f 17/17/34 18/16/34 19/18/34
f 22/21/35 21/19/35 20/20/35
f 10/25/14 11/40/14 13/41/14
f 13/41/14 16/42/14 17/23/14
f 17/23/14 21/43/14 22/44/14
f 22/44/14 2/45/14 5/24/14
f 5/24/14 6/46/14 10/25/14
f 10/25/14 13/41/14 17/23/14
f 17/23/14 22/44/14 5/24/14
f 22/26/36 1/47/36 3/9/36
f 33/39/37 34/27/37 23/29/37
f 23/29/38 24/30/38 25/31/38
f 25/31/39 26/32/39 27/33/39
f 27/33/40 28/34/40 29/35/40
f 29/35/41 30/36/41 31/37/41
f 31/37/42 32/38/42 33/39/42
f 33/39/43 23/29/43 25/31/43
f 25/31/44 27/33/44 29/35/44
f 29/35/45 31/37/45 33/39/45
