# Blender 3.6.2
# www.blender.org
mtllib arrow.mtl
o Cylinder.001
v 0.000000 1.598160 -0.100000
v 0.019509 0.000103 -0.098079
v 0.000000 0.000103 -0.100000
v 0.019509 1.598160 -0.098079
v 0.038268 0.000103 -0.092388
v 0.038268 1.598160 -0.092388
v 0.055557 0.000103 -0.083147
v 0.055557 1.598160 -0.083147
v 0.070711 0.000103 -0.070711
v 0.070711 1.598160 -0.070711
v 0.083147 0.000103 -0.055557
v 0.083147 1.598160 -0.055557
v 0.092388 0.000103 -0.038268
v 0.092388 1.598160 -0.038268
v 0.098079 0.000103 -0.019509
v 0.098079 1.598160 -0.019509
v 0.100000 0.000103 0.000000
v 0.100000 1.598160 -0.000000
v 0.098079 0.000103 0.019509
v 0.098079 1.598160 0.019509
v 0.092388 0.000103 0.038268
v 0.092388 1.598160 0.038268
v 0.083147 0.000103 0.055557
v 0.083147 1.598160 0.055557
v 0.070711 0.000103 0.070711
v 0.070711 1.598160 0.070711
v 0.055557 0.000103 0.083147
v 0.055557 1.598160 0.083147
v 0.038268 0.000103 0.092388
v 0.038268 1.598160 0.092388
v 0.019509 0.000103 0.098079
v 0.019509 1.598160 0.098079
v 0.000000 0.000103 0.100000
v 0.000000 1.598160 0.100000
v -0.019509 0.000103 0.098079
v -0.019509 1.598160 0.098079
v -0.038268 0.000103 0.092388
v -0.038268 1.598160 0.092388
v -0.055557 0.000103 0.083147
v -0.055557 1.598160 0.083147
v -0.070711 0.000103 0.070711
v -0.070711 1.598160 0.070711
v -0.083147 0.000103 0.055557
v -0.083147 1.598160 0.055557
v -0.092388 0.000103 0.038268
v -0.092388 1.598160 0.038268
v -0.098079 0.000103 0.019509
v -0.098079 1.598160 0.019509
v -0.100000 0.000103 0.000000
v -0.100000 1.598160 -0.000000
v -0.098079 0.000103 -0.019509
v -0.098079 1.598160 -0.019509
v -0.092388 0.000103 -0.038268
v -0.092388 1.598160 -0.038268
v -0.083147 0.000103 -0.055557
v -0.083147 1.598160 -0.055557
v -0.070711 0.000103 -0.070711
v -0.070711 1.598160 -0.070711
v -0.055557 0.000103 -0.083147
v -0.055557 1.598160 -0.083147
v -0.038268 0.000103 -0.092388
v -0.038268 1.598160 -0.092388
v -0.019509 0.000103 -0.098079
v -0.019509 1.598160 -0.098079
v 0.000000 1.598180 -0.300000
v 0.000000 2.450103 -0.000000
v 0.058527 1.598180 -0.294236
v 0.114805 1.598180 -0.277164
v 0.166671 1.598180 -0.249441
v 0.212132 1.598180 -0.212132
v 0.249441 1.598180 -0.166671
v 0.277164 1.598180 -0.114805
v 0.294236 1.598180 -0.058527
v 0.300000 1.598180 -0.000000
v 0.294236 1.598180 0.058527
v 0.277164 1.598180 0.114805
v 0.249441 1.598180 0.166671
v 0.212132 1.598180 0.212132
v 0.166671 1.598180 0.249441
v 0.114805 1.598180 0.277164
v 0.058527 1.598180 0.294236
v 0.000000 1.598180 0.300000
v -0.058527 1.598180 0.294236
v -0.114805 1.598180 0.277164
v -0.166671 1.598180 0.249441
v -0.212132 1.598180 0.212132
v -0.249441 1.598180 0.166671
v -0.277164 1.598180 0.114805
v -0.294236 1.598180 0.058527
v -0.300000 1.598180 -0.000000
v -0.294236 1.598180 -0.058527
v -0.277164 1.598180 -0.114805
v -0.249441 1.598180 -0.166671
v -0.212132 1.598180 -0.212132
v -0.166671 1.598180 -0.249441
v -0.114805 1.598180 -0.277164
v -0.058527 1.598180 -0.294236
vn 0.0980 -0.0000 -0.9952
vn 0.2903 -0.0000 -0.9569
vn 0.4714 -0.0000 -0.8819
vn 0.6344 -0.0000 -0.7730
vn 0.7730 -0.0000 -0.6344
vn 0.8819 -0.0000 -0.4714
vn 0.9569 -0.0000 -0.2903
vn 0.9952 -0.0000 -0.0980
vn 0.9952 -0.0000 0.0980
vn 0.9569 -0.0000 0.2903
vn 0.8819 -0.0000 0.4714
vn 0.7730 -0.0000 0.6344
vn 0.6344 -0.0000 0.7730
vn 0.4714 -0.0000 0.8819
vn 0.2903 -0.0000 0.9569
vn 0.0980 -0.0000 0.9952
vn -0.0980 -0.0000 0.9952
vn -0.2903 -0.0000 0.9569
vn -0.4714 -0.0000 0.8819
vn -0.6344 -0.0000 0.7730
vn -0.7730 -0.0000 0.6344
vn -0.8819 -0.0000 0.4714
vn -0.9569 -0.0000 0.2903
vn -0.9952 -0.0000 0.0980
vn -0.9952 -0.0000 -0.0980
vn -0.9569 -0.0000 -0.2903
vn -0.8819 -0.0000 -0.4714
vn -0.7730 -0.0000 -0.6344
vn -0.6344 -0.0000 -0.7730
vn -0.4714 -0.0000 -0.8819
vn -0.0000 1.0000 -0.0000
vn -0.2903 -0.0000 -0.9569
vn -0.0980 -0.0000 -0.9952
vn -0.0000 -1.0000 -0.0000
vn 0.0925 0.3307 -0.9392
vn 0.2740 0.3307 -0.9031
vn 0.4449 0.3307 -0.8323
vn 0.5987 0.3307 -0.7295
vn 0.7295 0.3307 -0.5987
vn 0.8323 0.3307 -0.4449
vn 0.9031 0.3307 -0.2740
vn 0.9392 0.3307 -0.0925
vn 0.9392 0.3307 0.0925
vn 0.9031 0.3307 0.2740
vn 0.8323 0.3307 0.4449
vn 0.7295 0.3307 0.5987
vn 0.5987 0.3307 0.7295
vn 0.4449 0.3307 0.8323
vn 0.2740 0.3307 0.9031
vn 0.0925 0.3307 0.9392
vn -0.0925 0.3307 0.9392
vn -0.2740 0.3307 0.9031
vn -0.4449 0.3307 0.8323
vn -0.5987 0.3307 0.7295
vn -0.7295 0.3307 0.5987
vn -0.8323 0.3307 0.4449
vn -0.9031 0.3307 0.2740
vn -0.9392 0.3307 0.0925
vn -0.9392 0.3307 -0.0925
vn -0.9031 0.3307 -0.2740
vn -0.8323 0.3307 -0.4449
vn -0.7295 0.3307 -0.5987
vn -0.5987 0.3307 -0.7295
vn -0.4449 0.3307 -0.8323
vn -0.2740 0.3307 -0.9031
vn -0.0925 0.3307 -0.9392
vt 1.000000 1.000000
vt 0.968750 0.500000
vt 1.000000 0.500000
vt 0.968750 1.000000
vt 0.937500 0.500000
vt 0.937500 1.000000
vt 0.906250 0.500000
vt 0.906250 1.000000
vt 0.875000 0.500000
vt 0.875000 1.000000
vt 0.843750 0.500000
vt 0.843750 1.000000
vt 0.812500 0.500000
vt 0.812500 1.000000
vt 0.781250 0.500000
vt 0.781250 1.000000
vt 0.750000 0.500000
vt 0.750000 1.000000
vt 0.718750 0.500000
vt 0.718750 1.000000
vt 0.687500 0.500000
vt 0.687500 1.000000
vt 0.656250 0.500000
vt 0.656250 1.000000
vt 0.625000 0.500000
vt 0.625000 1.000000
vt 0.593750 0.500000
vt 0.593750 1.000000
vt 0.562500 0.500000
vt 0.562500 1.000000
vt 0.531250 0.500000
vt 0.531250 1.000000
vt 0.500000 0.500000
vt 0.500000 1.000000
vt 0.468750 0.500000
vt 0.468750 1.000000
vt 0.437500 0.500000
vt 0.437500 1.000000
vt 0.406250 0.500000
vt 0.406250 1.000000
vt 0.375000 0.500000
vt 0.375000 1.000000
vt 0.343750 0.500000
vt 0.343750 1.000000
vt 0.312500 0.500000
vt 0.312500 1.000000
vt 0.281250 0.500000
vt 0.281250 1.000000
vt 0.250000 0.500000
vt 0.250000 1.000000
vt 0.218750 0.500000
vt 0.218750 1.000000
vt 0.187500 0.500000
vt 0.187500 1.000000
vt 0.156250 0.500000
vt 0.156250 1.000000
vt 0.125000 0.500000
vt 0.125000 1.000000
vt 0.093750 0.500000
vt 0.093750 1.000000
vt 0.062500 0.500000
vt 0.158156 0.028269
vt 0.471731 0.158156
vt 0.341844 0.471731
vt 0.062500 1.000000
vt 0.031250 0.500000
vt 0.031250 1.000000
vt 0.000000 0.500000
vt 0.796822 0.014612
vt 0.514612 0.203178
vt 0.703178 0.485388
vt 0.296822 0.485388
vt 0.250000 0.490000
vt 0.203178 0.485388
vt 0.158156 0.471731
vt 0.116663 0.449553
vt 0.080294 0.419706
vt 0.050447 0.383337
vt 0.028269 0.341844
vt 0.014612 0.296822
vt 0.010000 0.250000
vt 0.014612 0.203178
vt 0.028269 0.158156
vt 0.050447 0.116663
vt 0.080294 0.080294
vt 0.116663 0.050447
vt 0.203178 0.014612
vt 0.341844 0.028269
vt 0.250000 0.010000
vt 0.296822 0.014612
vt 0.383337 0.050447
vt 0.419706 0.080294
vt 0.449553 0.116663
vt 0.485388 0.203178
vt 0.471731 0.341844
vt 0.490000 0.250000
vt 0.485388 0.296822
vt 0.449553 0.383337
vt 0.419706 0.419706
vt 0.383337 0.449553
vt 0.000000 1.000000
vt 0.750000 0.490000
vt 0.796822 0.485388
vt 0.841844 0.471731
vt 0.883337 0.449553
vt 0.919706 0.419706
vt 0.949553 0.383337
vt 0.971731 0.341844
vt 0.985388 0.296822
vt 0.990000 0.250000
vt 0.985388 0.203178
vt 0.971731 0.158156
vt 0.949553 0.116663
vt 0.919706 0.080294
vt 0.883337 0.050447
vt 0.841844 0.028269
vt 0.750000 0.010000
vt 0.703178 0.014612
vt 0.658156 0.028269
vt 0.616663 0.050447
vt 0.580294 0.080294
vt 0.550447 0.116663
vt 0.528269 0.158156
vt 0.510000 0.250000
vt 0.514612 0.296822
vt 0.528269 0.341844
vt 0.550447 0.383337
vt 0.580294 0.419706
vt 0.616663 0.449553
vt 0.658156 0.471731
vt 0.250000 0.250000
s 1
usemtl Default_OBJ
f 1/1/1 2/2/1 3/3/1
f 4/4/2 5/5/2 2/2/2
f 6/6/3 7/7/3 5/5/3
f 8/8/4 9/9/4 7/7/4
f 10/10/5 11/11/5 9/9/5
f 12/12/6 13/13/6 11/11/6
f 14/14/7 15/15/7 13/13/7
f 16/16/8 17/17/8 15/15/8
f 18/18/9 19/19/9 17/17/9
f 20/20/10 21/21/10 19/19/10
f 22/22/11 23/23/11 21/21/11
f 24/24/12 25/25/12 23/23/12
f 26/26/13 27/27/13 25/25/13
f 28/28/14 29/29/14 27/27/14
f 30/30/15 31/31/15 29/29/15
f 32/32/16 33/33/16 31/31/16
f 34/34/17 35/35/17 33/33/17
f 36/36/18 37/37/18 35/35/18
f 38/38/19 39/39/19 37/37/19
f 40/40/20 41/41/20 39/39/20
f 42/42/21 43/43/21 41/41/21
f 44/44/22 45/45/22 43/43/22
f 46/46/23 47/47/23 45/45/23
f 48/48/24 49/49/24 47/47/24
f 50/50/25 51/51/25 49/49/25
f 52/52/26 53/53/26 51/51/26
f 54/54/27 55/55/27 53/53/27
f 56/56/28 57/57/28 55/55/28
f 58/58/29 59/59/29 57/57/29
f 60/60/30 61/61/30 59/59/30
f 38/62/31 22/63/31 6/64/31
f 62/65/32 63/66/32 61/61/32
f 64/67/33 3/68/33 63/66/33
f 31/69/34 47/70/34 63/71/34
f 1/1/1 4/4/1 2/2/1
f 4/4/2 6/6/2 5/5/2
f 6/6/3 8/8/3 7/7/3
f 8/8/4 10/10/4 9/9/4
f 10/10/5 12/12/5 11/11/5
f 12/12/6 14/14/6 13/13/6
f 14/14/7 16/16/7 15/15/7
f 16/16/8 18/18/8 17/17/8
f 18/18/9 20/20/9 19/19/9
f 20/20/10 22/22/10 21/21/10
f 22/22/11 24/24/11 23/23/11
f 24/24/12 26/26/12 25/25/12
f 26/26/13 28/28/13 27/27/13
f 28/28/14 30/30/14 29/29/14
f 30/30/15 32/32/15 31/31/15
f 32/32/16 34/34/16 33/33/16
f 34/34/17 36/36/17 35/35/17
f 36/36/18 38/38/18 37/37/18
f 38/38/19 40/40/19 39/39/19
f 40/40/20 42/42/20 41/41/20
f 42/42/21 44/44/21 43/43/21
f 44/44/22 46/46/22 45/45/22
f 46/46/23 48/48/23 47/47/23
f 48/48/24 50/50/24 49/49/24
f 50/50/25 52/52/25 51/51/25
f 52/52/26 54/54/26 53/53/26
f 54/54/27 56/56/27 55/55/27
f 56/56/28 58/58/28 57/57/28
f 58/58/29 60/60/29 59/59/29
f 60/60/30 62/65/30 61/61/30
f 6/64/31 4/72/31 1/73/31
f 1/73/31 64/74/31 6/64/31
f 64/74/31 62/75/31 6/64/31
f 62/75/31 60/76/31 58/77/31
f 58/77/31 56/78/31 54/79/31
f 54/79/31 52/80/31 50/81/31
f 50/81/31 48/82/31 54/79/31
f 48/82/31 46/83/31 54/79/31
f 46/83/31 44/84/31 42/85/31
f 42/85/31 40/86/31 38/62/31
f 38/62/31 36/87/31 30/88/31
f 36/87/31 34/89/31 30/88/31
f 34/89/31 32/90/31 30/88/31
f 30/88/31 28/91/31 26/92/31
f 26/92/31 24/93/31 22/63/31
f 22/63/31 20/94/31 14/95/31
f 20/94/31 18/96/31 14/95/31
f 18/96/31 16/97/31 14/95/31
f 14/95/31 12/98/31 10/99/31
f 10/99/31 8/100/31 6/64/31
f 62/75/31 58/77/31 6/64/31
f 58/77/31 54/79/31 6/64/31
f 46/83/31 42/85/31 54/79/31
f 42/85/31 38/62/31 54/79/31
f 30/88/31 26/92/31 38/62/31
f 26/92/31 22/63/31 38/62/31
f 14/95/31 10/99/31 22/63/31
f 10/99/31 6/64/31 22/63/31
f 6/64/31 54/79/31 38/62/31
f 62/65/32 64/67/32 63/66/32
f 64/67/33 1/101/33 3/68/33
f 63/71/34 3/102/34 2/103/34
f 2/103/34 5/104/34 7/105/34
f 7/105/34 9/106/34 11/107/34
f 11/107/34 13/108/34 15/109/34
f 15/109/34 17/110/34 19/111/34
f 19/111/34 21/112/34 23/113/34
f 23/113/34 25/114/34 27/115/34
f 27/115/34 29/116/34 31/69/34
f 31/69/34 33/117/34 35/118/34
f 35/118/34 37/119/34 39/120/34
f 39/120/34 41/121/34 43/122/34
f 43/122/34 45/123/34 47/70/34
f 47/70/34 49/124/34 51/125/34
f 51/125/34 53/126/34 55/127/34
f 55/127/34 57/128/34 59/129/34
f 59/129/34 61/130/34 63/71/34
f 63/71/34 2/103/34 15/109/34
f 2/103/34 7/105/34 15/109/34
f 7/105/34 11/107/34 15/109/34
f 15/109/34 19/111/34 31/69/34
f 19/111/34 23/113/34 31/69/34
f 23/113/34 27/115/34 31/69/34
f 31/69/34 35/118/34 47/70/34
f 35/118/34 39/120/34 47/70/34
f 39/120/34 43/122/34 47/70/34
f 47/70/34 51/125/34 63/71/34
f 51/125/34 55/127/34 63/71/34
f 55/127/34 59/129/34 63/71/34
f 63/71/34 15/109/34 31/69/34
f 65/73/35 66/131/35 67/72/35
f 67/72/36 66/131/36 68/64/36
f 68/64/37 66/131/37 69/100/37
f 69/100/38 66/131/38 70/99/38
f 70/99/39 66/131/39 71/98/39
f 71/98/40 66/131/40 72/95/40
f 72/95/41 66/131/41 73/97/41
f 73/97/42 66/131/42 74/96/42
f 74/96/43 66/131/43 75/94/43
f 75/94/44 66/131/44 76/63/44
f 76/63/45 66/131/45 77/93/45
f 77/93/46 66/131/46 78/92/46
f 78/92/47 66/131/47 79/91/47
f 79/91/48 66/131/48 80/88/48
f 80/88/49 66/131/49 81/90/49
f 81/90/50 66/131/50 82/89/50
f 82/89/51 66/131/51 83/87/51
f 83/87/52 66/131/52 84/62/52
f 84/62/53 66/131/53 85/86/53
f 85/86/54 66/131/54 86/85/54
f 86/85/55 66/131/55 87/84/55
f 87/84/56 66/131/56 88/83/56
f 88/83/57 66/131/57 89/82/57
f 89/82/58 66/131/58 90/81/58
f 90/81/59 66/131/59 91/80/59
f 91/80/60 66/131/60 92/79/60
f 92/79/61 66/131/61 93/78/61
f 93/78/62 66/131/62 94/77/62
f 94/77/63 66/131/63 95/76/63
f 95/76/64 66/131/64 96/75/64
f 81/69/34 89/70/34 97/71/34
f 96/75/65 66/131/65 97/74/65
f 97/74/66 66/131/66 65/73/66
f 97/71/34 65/102/34 67/103/34
f 67/103/34 68/104/34 69/105/34
f 69/105/34 70/106/34 71/107/34
f 71/107/34 72/108/34 73/109/34
f 73/109/34 74/110/34 75/111/34
f 75/111/34 76/112/34 77/113/34
f 77/113/34 78/114/34 79/115/34
f 79/115/34 80/116/34 81/69/34
f 81/69/34 82/117/34 83/118/34
f 83/118/34 84/119/34 85/120/34
f 85/120/34 86/121/34 87/122/34
f 87/122/34 88/123/34 89/70/34
f 89/70/34 90/124/34 91/125/34
f 91/125/34 92/126/34 93/127/34
f 93/127/34 94/128/34 95/129/34
f 95/129/34 96/130/34 97/71/34
f 97/71/34 67/103/34 69/105/34
f 69/105/34 71/107/34 73/109/34
f 73/109/34 75/111/34 77/113/34
f 77/113/34 79/115/34 81/69/34
f 81/69/34 83/118/34 85/120/34
f 85/120/34 87/122/34 89/70/34
f 89/70/34 91/125/34 93/127/34
f 93/127/34 95/129/34 97/71/34
f 97/71/34 69/105/34 73/109/34
f 73/109/34 77/113/34 81/69/34
f 81/69/34 85/120/34 89/70/34
f 89/70/34 93/127/34 97/71/34
f 97/71/34 73/109/34 81/69/34
